<?xml version="1.0" encoding="UTF-8"?><svg xmlns="http://www.w3.org/2000/svg" xmlns:xlink="http://www.w3.org/1999/xlink" contentScriptType="text/ecmascript" width="375pt" zoomAndPan="magnify" contentStyleType="text/css" viewBox="0 0 375 225" height="225pt" preserveAspectRatio="xMidYMid meet" version="1.2"><defs><g/><clipPath xml:id="clip1" id="clip1"><path d="M 169.792969 110.085938 L 196.957031 110.085938 L 196.957031 136.492188 L 169.792969 136.492188 Z M 169.792969 110.085938 "/></clipPath></defs><g xml:id="surface1" id="surface1"><g style="fill:rgb(0%,0%,0%);fill-opacity:1;"><g transform="translate(24.83203, 101.508358)"><path style="stroke:none;" d="M 0.847656 0 L 10.265625 -62.351562 L 21.460938 -62.351562 L 30.878906 0 L 21.972656 0 L 20.273438 -12.726562 L 11.453125 -12.726562 L 9.753906 0 Z M 16.371094 -42.078125 L 16.117188 -43.6875 L 15.609375 -43.6875 L 15.355469 -42.078125 L 12.726562 -22.394531 L 19.003906 -22.394531 Z M 16.371094 -42.078125 "/></g></g><g style="fill:rgb(0%,0%,0%);fill-opacity:1;"><g transform="translate(56.559205, 101.508358)"><path style="stroke:none;" d="M 13.0625 -32.492188 L 12.300781 -35.375 L 11.792969 -35.375 L 11.792969 0 L 3.394531 0 L 3.394531 -62.351562 L 11.539062 -62.351562 L 20.445312 -29.859375 L 21.207031 -26.976562 L 21.71875 -26.976562 L 21.71875 -62.351562 L 30.117188 -62.351562 L 30.117188 0 L 21.972656 0 Z M 13.0625 -32.492188 "/></g></g><g style="fill:rgb(0%,0%,0%);fill-opacity:1;"><g transform="translate(90.067848, 101.508358)"><path style="stroke:none;" d="M 18.070312 -39.957031 L 18.070312 -49.542969 C 18.070312 -51.238281 17.730469 -52.425781 16.882812 -53.445312 C 16.457031 -53.867188 15.777344 -54.125 15.015625 -54.125 C 13.402344 -54.125 12.640625 -52.933594 12.300781 -51.832031 C 12.046875 -51.152344 11.960938 -50.390625 11.960938 -49.542969 L 11.960938 -12.046875 C 11.960938 -10.265625 12.386719 -9.078125 13.234375 -8.144531 C 13.65625 -7.71875 14.25 -7.464844 15.015625 -7.464844 C 16.628906 -7.464844 17.390625 -8.484375 17.730469 -9.753906 C 17.984375 -10.347656 18.070312 -11.113281 18.070312 -12.046875 L 18.070312 -23.328125 L 14.421875 -23.328125 L 14.421875 -31.046875 L 27.230469 -31.046875 L 27.230469 0 L 21.800781 0 L 20.699219 -2.96875 C 19.003906 -0.847656 16.542969 0.679688 13.574219 0.679688 C 10.605469 0.679688 8.566406 -0.0859375 7.042969 -1.441406 C 5.515625 -2.714844 4.496094 -4.328125 3.816406 -6.023438 C 3.054688 -7.972656 2.714844 -10.265625 2.800781 -12.808594 L 2.800781 -49.542969 C 2.882812 -52.003906 3.394531 -54.292969 4.328125 -56.242188 C 5.089844 -57.941406 6.191406 -59.636719 7.890625 -60.910156 C 9.585938 -62.183594 11.960938 -63.03125 15.015625 -63.03125 C 18.070312 -63.03125 20.359375 -62.183594 22.054688 -60.910156 C 23.753906 -59.636719 24.941406 -57.941406 25.703125 -56.242188 C 26.636719 -54.292969 27.144531 -52.003906 27.230469 -49.542969 L 27.230469 -39.957031 Z M 18.070312 -39.957031 "/></g></g><g style="fill:rgb(0%,0%,0%);fill-opacity:1;"><g transform="translate(120.607367, 101.508358)"><path style="stroke:none;" d="M 3.394531 -62.351562 L 24.347656 -62.351562 L 24.347656 -52.933594 L 12.554688 -52.933594 L 12.554688 -36.5625 L 21.039062 -36.5625 L 21.039062 -26.550781 L 12.554688 -26.550781 L 12.554688 -9.417969 L 24.347656 -9.417969 L 24.347656 0 L 3.394531 0 Z M 3.394531 -62.351562 "/></g></g><g style="fill:rgb(0%,0%,0%);fill-opacity:1;"><g transform="translate(146.650789, 101.508358)"><path style="stroke:none;" d="M 3.394531 -62.351562 L 12.554688 -62.351562 L 12.554688 -8.484375 L 24.6875 -8.484375 L 24.6875 0 L 3.394531 0 Z M 3.394531 -62.351562 "/></g></g><g style="fill:rgb(0%,0%,0%);fill-opacity:1;"><g transform="translate(171.676236, 101.508358)"><path style="stroke:none;" d=""/></g></g><g style="fill:rgb(0%,0%,0%);fill-opacity:1;"><g transform="translate(184.740364, 101.508358)"><path style="stroke:none;" d="M 0.167969 -52.933594 L 0.167969 -62.351562 L 26.636719 -62.351562 L 26.636719 -52.933594 L 17.984375 -52.933594 L 17.984375 0 L 8.824219 0 L 8.824219 -52.933594 Z M 0.167969 -52.933594 "/></g></g><g style="fill:rgb(0%,0%,0%);fill-opacity:1;"><g transform="translate(211.547279, 101.508358)"><path style="stroke:none;" d="M 3.394531 -62.351562 L 24.347656 -62.351562 L 24.347656 -52.933594 L 12.554688 -52.933594 L 12.554688 -36.5625 L 21.039062 -36.5625 L 21.039062 -26.550781 L 12.554688 -26.550781 L 12.554688 -9.417969 L 24.347656 -9.417969 L 24.347656 0 L 3.394531 0 Z M 3.394531 -62.351562 "/></g></g><g style="fill:rgb(0%,0%,0%);fill-opacity:1;"><g transform="translate(237.590689, 101.508358)"><path style="stroke:none;" d="M 0.507812 -8.398438 C 2.289062 -8.144531 3.648438 -8.566406 4.664062 -9.925781 C 5.175781 -10.519531 5.429688 -11.539062 5.429688 -12.980469 L 5.429688 -62.351562 L 14.589844 -62.351562 L 14.589844 -11.539062 C 14.589844 -8.144531 13.742188 -5.003906 11.621094 -2.714844 C 9.5 -0.425781 5.9375 0.933594 0.507812 0.59375 Z M 0.507812 -8.398438 "/></g></g><g style="fill:rgb(0%,0%,0%);fill-opacity:1;"><g transform="translate(255.150914, 101.508358)"><path style="stroke:none;" d="M 0.847656 0 L 10.265625 -62.351562 L 21.460938 -62.351562 L 30.878906 0 L 21.972656 0 L 20.273438 -12.726562 L 11.453125 -12.726562 L 9.753906 0 Z M 16.371094 -42.078125 L 16.117188 -43.6875 L 15.609375 -43.6875 L 15.355469 -42.078125 L 12.726562 -22.394531 L 19.003906 -22.394531 Z M 16.371094 -42.078125 "/></g></g><g style="fill:rgb(0%,0%,0%);fill-opacity:1;"><g transform="translate(286.878101, 101.508358)"><path style="stroke:none;" d="M 3.394531 0 L 3.394531 -62.351562 L 10.605469 -62.351562 C 19.085938 -62.351562 23.667969 -60.65625 26.128906 -55.90625 C 28.503906 -51.152344 28.84375 -43.347656 28.84375 -31.132812 C 28.84375 -18.917969 28.503906 -11.199219 26.128906 -6.449219 C 23.667969 -1.695312 19.085938 0 10.605469 0 Z M 12.554688 -9.160156 C 15.695312 -9.160156 17.476562 -9.5 18.410156 -12.554688 C 18.832031 -13.996094 19.171875 -16.203125 19.257812 -19.171875 C 19.34375 -22.140625 19.34375 -26.128906 19.34375 -31.21875 C 19.34375 -36.308594 19.34375 -40.296875 19.257812 -43.265625 C 19.171875 -46.148438 18.832031 -48.355469 18.410156 -49.882812 C 17.476562 -52.851562 15.695312 -53.191406 12.554688 -53.191406 Z M 12.554688 -9.160156 "/></g></g><g style="fill:rgb(0%,0%,0%);fill-opacity:1;"><g transform="translate(318.435594, 101.508358)"><path style="stroke:none;" d="M 0.847656 0 L 10.265625 -62.351562 L 21.460938 -62.351562 L 30.878906 0 L 21.972656 0 L 20.273438 -12.726562 L 11.453125 -12.726562 L 9.753906 0 Z M 16.371094 -42.078125 L 16.117188 -43.6875 L 15.609375 -43.6875 L 15.355469 -42.078125 L 12.726562 -22.394531 L 19.003906 -22.394531 Z M 16.371094 -42.078125 "/></g></g><g style="fill:rgb(0%,0%,0%);fill-opacity:1;"><g transform="translate(39.45703, 192.435852)"><path style="stroke:none;" d="M 14.023438 -15.855469 L 14.023438 -17.8125 L 2.699219 -17.8125 L 2.699219 0 L 4.734375 0 L 4.734375 -7.632812 L 13.054688 -7.632812 L 13.054688 -9.59375 L 4.734375 -9.59375 L 4.734375 -15.855469 Z M 14.023438 -15.855469 "/></g></g><g style="fill:rgb(0%,0%,0%);fill-opacity:1;"><g transform="translate(53.78058, 192.435852)"><path style="stroke:none;" d="M 10.355469 -17.863281 C 5.140625 -17.863281 1.019531 -13.945312 1.019531 -8.90625 C 1.019531 -3.894531 5.140625 0.101562 10.355469 0.101562 C 15.546875 0.101562 19.671875 -3.894531 19.671875 -8.90625 C 19.671875 -13.917969 15.546875 -17.863281 10.355469 -17.863281 Z M 10.355469 -15.929688 C 14.328125 -15.929688 17.585938 -12.824219 17.585938 -8.90625 C 17.585938 -4.988281 14.328125 -1.859375 10.355469 -1.859375 C 6.386719 -1.859375 3.078125 -4.988281 3.078125 -8.90625 C 3.078125 -12.824219 6.386719 -15.929688 10.355469 -15.929688 Z M 10.355469 -15.929688 "/></g></g><g style="fill:rgb(0%,0%,0%);fill-opacity:1;"><g transform="translate(74.464493, 192.435852)"><path style="stroke:none;" d="M 13.945312 -15.855469 L 13.945312 -17.8125 L 0.28125 -17.8125 L 0.28125 -15.855469 L 6.082031 -15.855469 L 6.082031 0 L 8.117188 0 L 8.117188 -15.855469 Z M 13.945312 -15.855469 "/></g></g><g style="fill:rgb(0%,0%,0%);fill-opacity:1;"><g transform="translate(88.660832, 192.435852)"><path style="stroke:none;" d="M 10.355469 -17.863281 C 5.140625 -17.863281 1.019531 -13.945312 1.019531 -8.90625 C 1.019531 -3.894531 5.140625 0.101562 10.355469 0.101562 C 15.546875 0.101562 19.671875 -3.894531 19.671875 -8.90625 C 19.671875 -13.917969 15.546875 -17.863281 10.355469 -17.863281 Z M 10.355469 -15.929688 C 14.328125 -15.929688 17.585938 -12.824219 17.585938 -8.90625 C 17.585938 -4.988281 14.328125 -1.859375 10.355469 -1.859375 C 6.386719 -1.859375 3.078125 -4.988281 3.078125 -8.90625 C 3.078125 -12.824219 6.386719 -15.929688 10.355469 -15.929688 Z M 10.355469 -15.929688 "/></g></g><g style="fill:rgb(0%,0%,0%);fill-opacity:1;"><g transform="translate(109.344745, 192.435852)"><path style="stroke:none;" d="M 15.117188 -8.703125 L 15.117188 -3.332031 C 13.742188 -2.390625 12.035156 -1.832031 10.433594 -1.832031 C 6.363281 -1.832031 3.078125 -4.960938 3.078125 -8.90625 C 3.078125 -12.824219 6.335938 -15.957031 10.40625 -15.957031 C 12.394531 -15.957031 14.351562 -15.191406 15.804688 -13.894531 L 16.972656 -15.421875 C 15.269531 -16.921875 12.875 -17.863281 10.40625 -17.863281 C 5.164062 -17.863281 1.019531 -13.917969 1.019531 -8.90625 C 1.019531 -3.894531 5.140625 0.101562 10.304688 0.101562 C 12.699219 0.101562 15.167969 -0.839844 16.921875 -2.238281 L 16.921875 -8.703125 Z M 15.117188 -8.703125 "/></g></g><g style="fill:rgb(0%,0%,0%);fill-opacity:1;"><g transform="translate(128.502165, 192.435852)"><path style="stroke:none;" d="M 14.351562 0 L 16.667969 0 L 12.496094 -6.054688 C 15.066406 -6.894531 16.488281 -8.882812 16.488281 -11.832031 C 16.488281 -15.625 13.917969 -17.8125 9.464844 -17.8125 L 2.699219 -17.8125 L 2.699219 0 L 4.734375 0 L 4.734375 -5.625 L 9.464844 -5.625 C 9.875 -5.625 10.28125 -5.648438 10.664062 -5.675781 Z M 4.734375 -7.582031 L 4.734375 -15.855469 L 9.464844 -15.855469 C 12.699219 -15.855469 14.53125 -14.480469 14.53125 -11.78125 C 14.53125 -9.007812 12.699219 -7.582031 9.464844 -7.582031 Z M 4.734375 -7.582031 "/></g></g><g style="fill:rgb(0%,0%,0%);fill-opacity:1;"><g transform="translate(146.896345, 192.435852)"><path style="stroke:none;" d="M 13.96875 -4.503906 L 15.957031 0 L 18.167969 0 L 10.203125 -17.8125 L 8.09375 -17.8125 L 0.101562 0 L 2.265625 0 L 4.25 -4.503906 Z M 13.105469 -6.464844 L 5.113281 -6.464844 L 9.085938 -15.496094 Z M 13.105469 -6.464844 "/></g></g><g style="fill:rgb(0%,0%,0%);fill-opacity:1;"><g transform="translate(165.163323, 192.435852)"><path style="stroke:none;" d="M 14.023438 -15.855469 L 14.023438 -17.8125 L 2.699219 -17.8125 L 2.699219 0 L 4.734375 0 L 4.734375 -7.632812 L 13.054688 -7.632812 L 13.054688 -9.59375 L 4.734375 -9.59375 L 4.734375 -15.855469 Z M 14.023438 -15.855469 "/></g></g><g style="fill:rgb(0%,0%,0%);fill-opacity:1;"><g transform="translate(179.486873, 192.435852)"><path style="stroke:none;" d="M 4.734375 0 L 4.734375 -17.8125 L 2.699219 -17.8125 L 2.699219 0 Z M 4.734375 0 "/></g></g><g style="fill:rgb(0%,0%,0%);fill-opacity:1;"><g transform="translate(186.915782, 192.435852)"><path style="stroke:none;" d="M 13.96875 -4.503906 L 15.957031 0 L 18.167969 0 L 10.203125 -17.8125 L 8.09375 -17.8125 L 0.101562 0 L 2.265625 0 L 4.25 -4.503906 Z M 13.105469 -6.464844 L 5.113281 -6.464844 L 9.085938 -15.496094 Z M 13.105469 -6.464844 "/></g></g><g style="fill:rgb(0%,0%,0%);fill-opacity:1;"><g transform="translate(205.182761, 192.435852)"><path style="stroke:none;" d=""/></g></g><g style="fill:rgb(0%,0%,0%);fill-opacity:1;"><g transform="translate(212.153723, 192.435852)"><path style="stroke:none;" d="M 9.007812 -6.105469 L 15.777344 -17.8125 L 13.691406 -17.8125 L 7.992188 -8.523438 L 2.214844 -17.8125 L 0.101562 -17.8125 L 7 -6.03125 L 7 0 L 9.007812 0 Z M 9.007812 -6.105469 "/></g></g><g style="fill:rgb(0%,0%,0%);fill-opacity:1;"><g transform="translate(228.054636, 192.435852)"><path style="stroke:none;" d=""/></g></g><g style="fill:rgb(0%,0%,0%);fill-opacity:1;"><g transform="translate(235.025609, 192.435852)"><path style="stroke:none;" d="M 2.699219 -17.8125 L 2.699219 0 L 9.824219 0 C 15.066406 0 19.058594 -3.84375 19.058594 -8.90625 C 19.058594 -13.96875 15.089844 -17.8125 9.898438 -17.8125 Z M 4.734375 -15.855469 L 9.847656 -15.855469 C 13.84375 -15.855469 17 -12.875 17 -8.882812 C 17 -4.910156 13.894531 -1.933594 9.925781 -1.933594 L 4.734375 -1.933594 Z M 4.734375 -15.855469 "/></g></g><g style="fill:rgb(0%,0%,0%);fill-opacity:1;"><g transform="translate(255.098911, 192.435852)"><path style="stroke:none;" d="M 4.734375 0 L 4.734375 -17.8125 L 2.699219 -17.8125 L 2.699219 0 Z M 4.734375 0 "/></g></g><g style="fill:rgb(0%,0%,0%);fill-opacity:1;"><g transform="translate(262.52782, 192.435852)"><path style="stroke:none;" d="M 7.992188 -17.890625 C 4.300781 -17.890625 1.832031 -16.082031 1.832031 -13.285156 C 1.832031 -6.894531 11.859375 -9.390625 11.832031 -4.707031 C 11.832031 -3.003906 10.230469 -1.960938 7.660156 -1.960938 C 5.648438 -1.960938 3.382812 -2.875 1.730469 -4.480469 L 0.8125 -2.648438 C 2.492188 -1.042969 5.039062 0.078125 7.632812 0.078125 C 11.453125 0.078125 14.074219 -1.832031 14.074219 -4.808594 C 14.097656 -11.273438 4.070312 -8.882812 4.070312 -13.460938 C 4.070312 -14.964844 5.574219 -15.828125 7.863281 -15.828125 C 9.289062 -15.828125 11.171875 -15.394531 12.773438 -14.328125 L 13.640625 -16.234375 C 12.164062 -17.226562 10.050781 -17.890625 7.992188 -17.890625 Z M 7.992188 -17.890625 "/></g></g><g style="fill:rgb(0%,0%,0%);fill-opacity:1;"><g transform="translate(278.072558, 192.435852)"><path style="stroke:none;" d="M 14.785156 -15.855469 L 14.785156 -17.8125 L 2.699219 -17.8125 L 2.699219 0 L 15.117188 0 L 15.117188 -1.933594 L 4.734375 -1.933594 L 4.734375 -8.042969 L 13.714844 -8.042969 L 13.714844 -10 L 4.734375 -10 L 4.734375 -15.855469 Z M 14.785156 -15.855469 "/></g></g><g style="fill:rgb(0%,0%,0%);fill-opacity:1;"><g transform="translate(294.634951, 192.435852)"><path style="stroke:none;" d="M 8.421875 -23.359375 C 7.050781 -23.359375 6.3125 -22.367188 6.3125 -20.484375 L 7.632812 -20.484375 C 7.632812 -21.351562 8.015625 -21.808594 8.726562 -21.808594 C 9.695312 -21.808594 10.332031 -20.28125 11.808594 -20.28125 C 13.183594 -20.28125 13.917969 -21.273438 13.917969 -23.15625 L 12.597656 -23.15625 C 12.597656 -22.292969 12.214844 -21.832031 11.503906 -21.832031 C 10.5625 -21.832031 9.746094 -23.359375 8.421875 -23.359375 Z M 17.507812 0 L 17.507812 -17.8125 L 15.496094 -17.8125 L 15.496094 -3.484375 L 4.808594 -17.8125 L 2.699219 -17.8125 L 2.699219 0 L 4.734375 0 L 4.734375 -14.300781 L 15.421875 0 Z M 17.507812 0 "/></g></g><g style="fill:rgb(0%,0%,0%);fill-opacity:1;"><g transform="translate(314.860918, 192.435852)"><path style="stroke:none;" d="M 10.355469 -17.863281 C 5.140625 -17.863281 1.019531 -13.945312 1.019531 -8.90625 C 1.019531 -3.894531 5.140625 0.101562 10.355469 0.101562 C 15.546875 0.101562 19.671875 -3.894531 19.671875 -8.90625 C 19.671875 -13.917969 15.546875 -17.863281 10.355469 -17.863281 Z M 10.355469 -15.929688 C 14.328125 -15.929688 17.585938 -12.824219 17.585938 -8.90625 C 17.585938 -4.988281 14.328125 -1.859375 10.355469 -1.859375 C 6.386719 -1.859375 3.078125 -4.988281 3.078125 -8.90625 C 3.078125 -12.824219 6.386719 -15.929688 10.355469 -15.929688 Z M 10.355469 -15.929688 "/></g></g><path style="fill:none;stroke-width:1;stroke-linecap:butt;stroke-linejoin:miter;stroke:rgb(0%,0%,0%);stroke-opacity:1;stroke-miterlimit:4;" d="M 0.749826 0.00144368 L 199.998307 0.00144368 " transform="matrix(0.734204,0,0,0.734204,183.551037,123.81144)"/><path style=" stroke:none;fill-rule:nonzero;fill:rgb(0%,0%,0%);fill-opacity:1;" d="M 183.917969 122.34375 C 184.019531 122.34375 184.105469 122.378906 184.175781 122.449219 C 184.25 122.523438 184.285156 122.609375 184.285156 122.710938 L 184.285156 124.914062 C 184.285156 125.015625 184.25 125.101562 184.175781 125.171875 C 184.105469 125.242188 184.019531 125.28125 183.917969 125.28125 C 183.816406 125.28125 183.730469 125.242188 183.660156 125.171875 C 183.585938 125.101562 183.550781 125.015625 183.550781 124.914062 L 183.550781 122.710938 C 183.550781 122.609375 183.585938 122.523438 183.660156 122.449219 C 183.730469 122.378906 183.816406 122.34375 183.917969 122.34375 Z M 183.917969 122.34375 "/><path style="fill:none;stroke-width:1;stroke-linecap:butt;stroke-linejoin:miter;stroke:rgb(0%,0%,0%);stroke-opacity:1;stroke-miterlimit:4;" d="M 0.000997706 0.00144368 L 181.26121 0.00144368 " transform="matrix(0.733191,0,0,0.734204,36.710206,123.81144)"/><g clip-rule="nonzero" clip-path="url(#clip1)"><path style=" stroke:none;fill-rule:nonzero;fill:rgb(100%,83.918762%,0%);fill-opacity:1;" d="M 196.957031 118.378906 L 196.957031 131.777344 C 196.957031 134.382812 194.847656 136.492188 192.242188 136.492188 L 187.410156 128.261719 C 189.160156 127.289062 190.347656 125.417969 190.347656 123.273438 C 190.347656 120.125 187.792969 117.570312 184.640625 117.570312 C 183.539062 117.570312 182.511719 117.882812 181.636719 118.421875 L 178.847656 113.664062 L 192.242188 113.664062 C 194.847656 113.664062 196.957031 115.777344 196.957031 118.378906 Z M 184.640625 128.980469 C 181.492188 128.980469 178.9375 126.425781 178.9375 123.273438 C 178.9375 121.933594 179.402344 120.699219 180.175781 119.722656 L 174.507812 110.0625 C 171.902344 110.0625 169.792969 112.171875 169.792969 114.777344 L 169.792969 128.171875 C 169.792969 130.777344 171.902344 132.890625 174.507812 132.890625 L 187.902344 132.890625 L 185.5625 128.90625 C 185.261719 128.953125 184.957031 128.980469 184.640625 128.980469 Z M 184.640625 128.980469 "/></g><path style=" stroke:none;fill-rule:nonzero;fill:rgb(0%,0%,0%);fill-opacity:1;" d="M 184.609375 119 C 182.253906 119 180.339844 120.910156 180.339844 123.265625 C 180.339844 125.625 182.25 127.535156 184.609375 127.535156 C 186.964844 127.535156 188.875 125.625 188.875 123.265625 C 188.875 120.910156 186.964844 119 184.609375 119 Z M 184.609375 124.632812 C 183.855469 124.632812 183.242188 124.019531 183.242188 123.265625 C 183.242188 122.511719 183.855469 121.902344 184.609375 121.902344 C 185.363281 121.902344 185.972656 122.511719 185.972656 123.265625 C 185.976562 124.019531 185.363281 124.632812 184.609375 124.632812 Z M 184.609375 124.632812 "/></g></svg>